<?xml version="1.0" standalone="no"?>
<!DOCTYPE svg PUBLIC "-//W3C//DTD SVG 20010904//EN"
 "http://www.w3.org/TR/2001/REC-SVG-20010904/DTD/svg10.dtd">
<svg version="1.0" xmlns="http://www.w3.org/2000/svg"
 width="700.000000pt" height="700.000000pt" viewBox="0 0 700.000000 700.000000"
 preserveAspectRatio="xMidYMid meet">
<metadata>
Created by potrace 1.11, written by Peter Selinger 2001-2013
</metadata>
<g transform="translate(0.000000,700.000000) scale(0.100000,-0.100000)"
fill="#000000" stroke="none">
<path d="M1209 6765 c-108 -39 -191 -129 -214 -235 -5 -19 -9 -93 -9 -165 l-2
-129 -145 -2 c-163 -2 -239 -17 -328 -65 -136 -72 -226 -186 -279 -354 -4 -11
-8 -1043 -9 -2294 -3 -2011 -1 -2282 12 -2335 49 -196 201 -350 395 -402 60
-16 197 -17 1938 -18 l1873 -1 52 -76 c129 -190 301 -341 497 -436 165 -81
218 -98 420 -133 52 -9 315 -6 370 3 489 88 884 419 1038 872 51 149 66 243
67 410 0 202 -10 268 -67 440 -100 301 -326 570 -610 725 l-83 45 -1 1570 c0
864 -4 1585 -8 1603 -28 139 -121 277 -240 358 -42 29 -150 71 -204 81 -20 3
-99 6 -174 7 l-138 1 -1 125 c0 69 -3 139 -5 155 -15 90 -99 197 -187 236 -79
36 -202 34 -279 -4 -68 -33 -121 -90 -156 -166 -23 -49 -26 -70 -28 -191 -2
-74 -3 -140 -3 -145 -1 -12 -525 -14 -537 -2 -4 4 -8 69 -9 145 -1 125 -3 142
-27 193 -72 156 -232 231 -393 184 -93 -27 -155 -81 -202 -175 -25 -50 -28
-67 -33 -205 l-5 -150 -322 0 c-178 0 -324 2 -324 5 -1 3 -3 66 -4 140 -5 177
-26 238 -114 318 -63 57 -115 76 -211 76 -123 1 -202 -38 -271 -134 -49 -68
-61 -119 -61 -265 0 -117 -2 -135 -16 -138 -9 -3 -132 -4 -272 -3 l-255 1 -5
150 c-5 136 -8 155 -32 205 -56 118 -157 183 -288 186 -42 1 -91 -4 -111 -11z
m162 -222 c15 -9 33 -29 39 -44 10 -23 15 -337 11 -692 -1 -42 -6 -54 -35 -83
-27 -27 -42 -34 -74 -34 -48 0 -88 29 -100 73 -5 18 -9 188 -8 378 1 315 3
347 19 372 31 48 96 61 148 30z m1193 5 c60 -27 60 -30 61 -417 0 -386 -1
-398 -56 -427 -35 -18 -72 -18 -107 0 -54 28 -55 37 -56 413 -1 298 1 352 15
383 24 54 86 75 143 48z m1310 2 c14 -5 34 -23 45 -40 17 -28 18 -57 18 -385
0 -328 -1 -357 -18 -385 -37 -60 -113 -68 -165 -16 l-34 34 -1 171 c0 94 0
200 0 236 0 36 0 124 0 196 l1 131 34 34 c36 36 71 43 120 24z m1232 -24 l34
-34 0 -367 0 -367 -34 -34 c-27 -27 -42 -34 -74 -34 -48 0 -87 28 -101 73 -16
50 -12 694 4 733 17 42 51 64 98 64 31 0 46 -7 73 -34z m-4126 -515 c3 0 5
-61 6 -134 0 -72 6 -150 12 -173 16 -54 65 -127 113 -164 160 -127 410 -69
495 115 31 66 32 77 33 230 l1 130 274 0 275 1 0 -138 c1 -99 5 -151 17 -185
42 -124 155 -211 285 -221 169 -12 318 104 346 269 5 24 8 96 8 159 l-1 115
325 0 c282 0 326 -2 328 -15 1 -8 4 -76 6 -150 4 -158 17 -199 92 -279 65 -70
128 -96 235 -96 68 0 94 4 131 23 73 36 125 87 160 157 31 63 32 70 34 208 2
78 4 144 4 147 1 5 524 6 541 1 3 0 5 -65 6 -144 0 -131 2 -146 26 -198 35
-76 88 -133 156 -166 76 -37 201 -40 274 -6 92 42 178 149 192 238 2 17 5 87
5 156 l1 125 138 -1 c79 -1 154 -7 177 -14 94 -30 180 -113 212 -207 15 -42
17 -93 18 -349 l0 -300 -2732 -3 c-2183 -2 -2733 0 -2734 10 0 7 -1 140 -1
294 0 228 3 292 16 336 35 120 128 201 270 232 8 2 247 -1 256 -3z m4901
-1090 l25 -1 0 -1112 c-1 -777 -4 -1112 -12 -1111 -161 28 -215 34 -322 34
-70 -1 -144 -5 -165 -10 -20 -5 -39 -6 -42 -1 -2 4 -5 140 -5 302 l-1 295 -28
34 -29 34 -363 3 c-389 3 -404 1 -436 -47 -16 -24 -17 -59 -18 -380 0 -251 3
-361 12 -381 23 -55 50 -63 209 -64 l145 -1 -28 -20 c-176 -127 -317 -291
-414 -482 -144 -282 -180 -604 -103 -901 14 -53 26 -104 27 -112 2 -13 -216
-15 -1818 -14 l-1820 0 -55 25 c-100 47 -164 120 -190 219 -10 34 -12 474 -12
1850 0 993 1 1813 1 1822 1 13 12 18 44 20 32 2 5277 1 5398 -1z m-743 -1968
l-3 -218 -205 -1 c-113 0 -210 1 -216 3 -7 3 -11 72 -11 218 l0 215 219 0 218
0 -2 -217z m592 -448 c345 -50 656 -270 817 -580 41 -79 87 -201 97 -260 3
-17 10 -52 15 -80 5 -27 9 -104 9 -170 0 -132 -19 -242 -63 -365 -24 -67 -81
-187 -95 -200 -3 -3 -23 -31 -44 -63 -115 -170 -329 -330 -536 -399 -134 -45
-186 -53 -360 -52 -145 1 -177 4 -262 27 -485 130 -822 561 -822 1052 0 302
110 569 320 778 188 188 405 288 694 320 38 4 180 -1 230 -8z"/>
<path d="M953 4585 c-20 -6 -45 -23 -57 -38 -20 -27 -21 -39 -21 -386 0 -388
1 -392 55 -424 25 -15 70 -17 389 -17 l361 0 32 29 33 29 3 354 c2 222 -1 366
-7 388 -7 23 -22 42 -43 55 -31 18 -55 19 -371 19 -197 1 -353 -3 -374 -9z
m577 -427 c0 -134 -4 -218 -10 -220 -5 -1 -104 -2 -218 0 l-208 3 1 212 c1
117 3 214 4 217 0 3 98 5 216 5 l215 0 0 -217z"/>
<path d="M2140 4579 c-60 -27 -62 -40 -62 -391 1 -172 1 -333 1 -356 1 -36 7
-50 35 -78 l34 -34 370 0 370 0 31 35 c17 20 31 48 32 63 0 15 1 177 1 360 1
357 0 365 -51 399 -22 14 -67 16 -375 17 -303 1 -355 -1 -386 -15z m591 -214
c1 -5 2 -103 3 -217 l1 -208 -50 0 c-27 0 -125 -1 -218 -3 -161 -2 -167 -1
-168 18 -3 72 0 405 4 412 8 12 427 10 428 -2z"/>
<path d="M3369 4589 c-17 -4 -43 -19 -58 -33 l-26 -26 -2 -361 c-2 -304 0
-365 12 -390 30 -58 40 -59 426 -59 336 0 353 1 384 20 18 11 37 33 42 48 5
15 9 185 9 378 -2 380 -2 385 -58 415 -25 14 -669 20 -729 8z m568 -431 l0
-218 -54 0 c-29 -1 -109 -1 -178 -1 -69 0 -143 0 -165 1 l-40 0 0 218 0 217
219 0 219 0 -1 -217z"/>
<path d="M4557 4585 c-17 -5 -40 -23 -51 -38 -20 -28 -21 -39 -22 -385 0 -302
2 -361 15 -382 34 -58 13 -55 423 -55 l378 0 27 28 28 27 3 363 c2 390 2 391
-50 430 -27 20 -42 21 -374 21 -207 1 -359 -3 -377 -9z m581 -427 l2 -217 -57
-3 c-32 -2 -130 -2 -219 0 l-161 3 0 212 c0 117 4 214 8 217 4 3 101 5 216 5
l208 0 3 -217z"/>
<path d="M932 3377 c-56 -32 -56 -32 -57 -415 -1 -380 1 -396 51 -428 24 -17
59 -18 383 -19 387 0 392 0 425 56 14 23 16 76 16 381 0 335 -1 355 -20 386
-11 18 -32 37 -46 42 -40 16 -723 12 -752 -3z m598 -425 l0 -217 -212 1 c-117
1 -216 2 -219 3 -3 0 -5 98 -5 216 l0 215 218 0 218 0 0 -218z"/>
<path d="M2126 3369 c-14 -11 -31 -30 -37 -41 -16 -30 -15 -709 1 -748 26 -64
29 -64 415 -65 193 -1 361 3 374 7 14 5 35 20 48 34 27 29 25 -4 25 430 1 292
-1 324 -17 352 -10 17 -29 35 -42 41 -16 7 -146 11 -382 11 -348 0 -359 -1
-385 -21z m609 -412 c0 -129 -4 -211 -10 -215 -18 -11 -425 -9 -426 3 -1 14
-1 375 0 403 l1 22 217 -2 218 -3 0 -208z"/>
<path d="M3343 3380 c-13 -5 -32 -24 -42 -41 -19 -31 -20 -53 -20 -384 0 -391
2 -402 64 -427 25 -10 116 -13 382 -13 320 0 352 2 377 19 50 32 52 48 51 428
-1 386 -2 390 -61 416 -30 15 -717 16 -751 2z m594 -425 c0 -150 -3 -215 -11
-216 -6 -1 -104 -2 -218 -3 l-208 -2 0 218 0 218 219 0 218 0 0 -215z"/>
<path d="M953 2183 c-23 -4 -72 -55 -74 -76 -6 -59 -3 -698 4 -718 4 -15 19
-37 33 -50 l26 -24 361 -1 c395 -1 403 0 432 56 22 43 22 717 0 760 -30 58
-39 59 -416 58 -189 0 -354 -2 -366 -5z m577 -433 l0 -220 -218 0 -218 0 1
218 c1 119 3 218 4 220 0 1 98 2 216 2 l215 0 0 -220z"/>
<path d="M2143 2176 c-65 -29 -64 -27 -65 -419 0 -392 1 -399 61 -429 31 -15
73 -17 380 -16 373 0 383 2 417 54 15 22 17 67 17 384 0 394 1 392 -62 424
-40 21 -700 23 -748 2z m589 -218 c2 -7 4 -105 3 -218 l0 -205 -218 -3 c-119
-1 -217 1 -218 5 -1 11 -1 382 0 411 l1 22 214 0 c162 0 215 -3 218 -12z"/>
<path d="M3342 2173 c-60 -30 -61 -34 -61 -423 0 -389 1 -395 61 -422 48 -22
711 -23 756 -1 57 28 58 38 57 433 l0 360 -33 32 -32 33 -358 2 c-315 3 -361
1 -390 -14z m594 -420 l-1 -218 -217 -3 -218 -2 0 220 0 220 218 0 219 0 -1
-217z"/>
<path d="M5470 1955 l0 -344 -27 -21 c-47 -37 -75 -88 -80 -149 -3 -31 -9 -58
-13 -61 -60 -43 -380 -306 -380 -313 0 -5 23 -37 51 -71 28 -33 57 -69 65 -79
13 -16 29 -5 214 142 191 153 200 159 231 151 87 -25 196 26 241 114 42 83 27
176 -40 245 l-44 46 -2 340 -1 340 -107 2 -108 1 0 -343z"/>
</g>
</svg>
